<?xml version="1.0" encoding="utf-8"?>
<!-- Generator: Adobe Illustrator 26.5.0, SVG Export Plug-In . SVG Version: 6.00 Build 0)  -->
<svg version="1.1" id="Calque_2" xmlns="http://www.w3.org/2000/svg" xmlns:xlink="http://www.w3.org/1999/xlink" x="0px" y="0px"
	 viewBox="0 0 4800 1093" style="enable-background:new 0 0 4800 1093;" xml:space="preserve">
<style type="text/css">
	.st0{fill:#2B3233;}
	.st1{fill:#11AFD3;}
</style>
<g id="WORKTEXTILE_00000048473324573126457350000005215298653747179649_">
	<g>
		<path class="st0" d="M1255.9,262.4h14.5l103.6,310l105-310.1h28.1l-119.6,340.1h-28.1l-53.7-158.9l-42.6-134.2l-42.6,133.2
			l-54.2,159.9h-28.1l-118.6-340.1h27.6l104.5,310.1L1255.9,262.4z"/>
		<path class="st0" d="M1913.7,432.4c-0.5,89.1-57.1,174.9-170.9,174.9S1572,521.1,1572,431.4c0-91.1,56.6-174.4,170.9-174.4
			C1857,257,1914.2,340.8,1913.7,432.4z M1597.6,431.9c0.5,76.5,48.9,151.2,145.2,151.2c96.8,0,145.7-74.6,145.7-151.2
			c0-78.5-48.4-150.7-145.7-150.7C1645.5,281.2,1597.1,352,1597.6,431.9z"/>
		<path class="st0" d="M2280.1,601.5h-34.4l-117.1-128.4h-92.4v128.4H2010V262.4c49.9,0,99.2,0,149.1,0
			c73.6,0,110.8,52.8,111.3,105.6c0.5,55.2-35.8,103.7-109.9,103.7L2280.1,601.5z M2036.1,448.4h120c59,0,85.2-33.4,85.7-80.9
			c0.5-39.7-26.6-80.9-82.8-80.9h-122.9V448.4z"/>
		<path class="st0" d="M2595.7,601.5h-32.9l-178.6-167.1V601H2358V262.4h26.1v154.5l164.6-154.5h31.5v2.4l-170.4,159.9l185.9,174.9
			L2595.7,601.5L2595.7,601.5z"/>
		<path class="st0" d="M2744.2,320.5h-107.5v-58.1c97.8,0,180.5,0,278.8,0v58.1H2808v281h-63.9L2744.2,320.5L2744.2,320.5z"/>
		<path class="st0" d="M3240.8,601.5h-253.6c0-112.9,0-226.2,0-339.1h253.6v62h-190.2v78H3234V462h-183.4v76.5h190.2V601.5z"/>
		<path class="st0" d="M3554,262.4h70.2v2.9L3509.5,430l118.1,169.6v1.9H3556l-86.6-127.4l-86.6,127.4H3311v-1.9L3428.6,430
			l-114.2-164.7v-2.9h70.2l84.7,126.4L3554,262.4z"/>
		<path class="st0" d="M3786.8,320.5h-107.5v-58.1c97.8,0,180.5,0,278.8,0v58.1h-107.5v281h-63.9L3786.8,320.5L3786.8,320.5z"/>
		<path class="st0" d="M4031.2,601.5V262.4h63.4v339.1H4031.2z"/>
		<path class="st0" d="M4252.4,262.4v280h174.2v59.1h-238.1V262.4H4252.4z"/>
		<path class="st0" d="M4758.2,601.5h-253.6c0-112.9,0-226.2,0-339.1h253.6v62H4568v78h183.4V462H4568v76.5h190.2V601.5z"/>
	</g>
</g>
<g id="my_fashion_Platform_00000177444302978226529470000002309451438692148895_">
	<g>
		<path class="st1" d="M1160.4,754.3l-50,66.8h-5.7l-48.9-67v111.8h-29V712.1h33.4l48.1,66.1l48.1-66.1h33.1v153.8h-29L1160.4,754.3
			L1160.4,754.3z"/>
		<path class="st1" d="M1342.8,775.4l40.8-63.5h34.9v1.3l-61.2,89v63.5h-29v-63.5l-59-89v-1.3h34.5L1342.8,775.4z"/>
		<path class="st1" d="M1598.4,865.6V712.1h110.4V740h-81.4v42h77v26.8h-77v56.9h-29V865.6z"/>
		<path class="st1" d="M1899.3,836.6H1819l-13.2,29h-31.4l68.9-153.8h31.6l68.9,153.8h-31.6L1899.3,836.6z M1859.1,744.2l-28.5,65.5
			h57.1L1859.1,744.2z"/>
		<path class="st1" d="M2110.9,749c-5.3-8.8-19.8-17.1-36.4-17.1c-21.5,0-31.8,9-31.8,20.4c0,13.4,15.8,17.1,34.2,19.3
			c32,4,61.9,12.3,61.9,49c0,34.3-30.3,49-64.5,49c-31.4,0-55.5-9.7-66.9-37.8l24.1-12.5c6.8,16.9,24.6,24.4,43.2,24.4
			c18.2,0,35.3-6.4,35.3-23.1c0-14.5-15.1-20.4-35.6-22.6c-31.4-3.7-60.3-12.1-60.3-46.6c0-31.6,31.2-44.6,59.5-44.8
			c23.9,0,48.7,6.8,60.3,30.5L2110.9,749z"/>
		<path class="st1" d="M2327.2,865.9v-62.2h-75.5v62.2h-29V712.1h29v64.8h75.5v-64.8h28.7v153.8L2327.2,865.9L2327.2,865.9z"/>
		<path class="st1" d="M2444.8,865.6V711.9h28.7v153.8h-28.7V865.6z"/>
		<path class="st1" d="M2717.8,789.6c-0.4,39.8-24.8,79.5-78.8,79.5s-79-38.9-79-79.3c0-40.4,25.9-81,79-81
			C2691.9,708.8,2718.3,749.4,2717.8,789.6z M2588.6,790.3c0.7,25.3,14.3,52.3,50.5,52.3s49.8-27.2,50.3-52.5
			c0.4-25.9-14-54.9-50.3-54.9C2602.8,735.2,2587.9,764.4,2588.6,790.3z"/>
		<path class="st1" d="M2901.5,711.7h29v154h-18v0.2L2831.7,762v103.7h-29V711.9h23.5l75.3,95.3V711.7z"/>
		<path class="st1" d="M3196.7,820.4h-43.5v45.2h-29V711.9c24.1,0,48.3-0.2,72.4-0.2C3271.7,711.7,3271.9,820.4,3196.7,820.4z
			 M3153.2,793.8h43.5c37.1,0,36.9-54.5,0-54.5h-43.5V793.8z"/>
		<path class="st1" d="M3363,711.9v127h79v26.8h-108V711.9H3363z"/>
		<path class="st1" d="M3632.9,836.6h-80.3l-13.2,29H3508l68.9-153.8h31.6l68.9,153.8h-31.6L3632.9,836.6z M3592.8,744.2l-28.5,65.5
			h57.1L3592.8,744.2z"/>
		<path class="st1" d="M3766.6,738.2h-48.7v-26.4c44.3,0,81.9,0,126.4,0v26.4h-48.7v127.4h-29V738.2z"/>
		<path class="st1" d="M3923.2,865.6V712.1h110.4V740h-81.4v42h77v26.8h-77v56.9h-29V865.6z"/>
		<path class="st1" d="M4270.6,789.6c-0.4,39.8-24.8,79.5-78.8,79.5s-79-38.9-79-79.3c0-40.4,25.9-81,79-81
			C4244.7,708.8,4271.1,749.4,4270.6,789.6z M4141.4,790.3c0.7,25.3,14.3,52.3,50.5,52.3s49.8-27.2,50.3-52.5
			c0.4-25.9-14-54.9-50.3-54.9C4155.6,735.2,4140.7,764.4,4141.4,790.3z"/>
		<path class="st1" d="M4489.6,865.6h-34.5l-44.8-51.4h-27.9v51.4h-29v-154c24.4,0,48.7,0.2,73.1,0.2c36.2,0.2,55.3,24.4,55.3,51
			c0,21.1-9.7,42.4-38.8,48.3l46.5,52.5L4489.6,865.6L4489.6,865.6z M4382.5,738.9v49.2h44.1c18.4,0,26.3-12.3,26.3-24.6
			s-8.1-24.6-26.3-24.6L4382.5,738.9L4382.5,738.9z"/>
		<path class="st1" d="M4696.8,754.3l-50,66.8h-5.7l-48.9-67v111.8h-29V712.1h33.4l48.1,66.1l48.1-66.1h33.1v153.8h-29V754.3H4696.8
			z"/>
	</g>
	<path class="st0" d="M860.6,550.9C873.1,389,733.5,249.4,597.7,186.7c-45.7-21.1-144.8-61-194.7-30.5c-72.2,44,7.2,101,36.7,153.5
		c72.2,128.4,64.4,285,181.8,389.7C760.2,822.9,865.7,710,860.6,550.9z"/>
	<path class="st0" d="M71.6,581.3c5.5,125.9,74.1,254.6,177,328.8c107.7,77.8,223.9,30.7,257.5-97.5
		c30.5-116.2-14.8-262.6-131.4-303.8C285.2,477.1,69.1,437.2,71.6,581.3z"/>
	<path class="st1" d="M360.5,398.6c2.4-77.4-62.3-141.4-71.7-148.5c-57.3-43.6-112-12.1-152.9,43.5
		C40.4,423.6,360.5,483.1,360.5,398.6z"/>
	<path class="st0" d="M636,799.2c-96.9,4.9-130.7,144.8-12,126.4C735.2,908.5,776.5,797.8,636,799.2z"/>
</g>
</svg>
